<svg width="600" height="160" viewBox="226 686 4230 1128" fill="none" xmlns="http://www.w3.org/2000/svg">
	<title>Katana</title>
	<!-- K: lower diagonal + vertical bar -->
	<path fill="#FF5C4D" fill-rule="evenodd" d="M1035.36 1797 743 1250 743 1038 1214 1797Z" />
	<rect fill="#FF5C4D" x="571" y="688" width="182" height="1110" />
	<!-- Katana forming the K's upper diagonal -->
	<path
		fill="#FF5C4D"
		fill-rule="evenodd"
		d="M984.874 1036.63C974.946 1026.81 974.856 1010.81 984.673 1000.88L1276.19 706.076C1286.01 696.148 1302.02 696.059 1311.95 705.876L1383.85 776.977C1393.78 786.795 1393.87 802.801 1384.05 812.729L1092.53 1107.53C1082.71 1117.46 1066.7 1117.55 1056.78 1107.73Z"
	/>
	<path
		fill="#ECECEE"
		fill-rule="evenodd"
		d="M975.345 1013 228.409 1769.28 226 1783.73 235.637 1800.59 242.866 1803 397.072 1800.59 428.395 1795.77 464.537 1778.91 493.451 1752.42 534.412 1709.07 1091 1131.02 975.345 1013Z"
	/>
	<path
		fill="#FF5C4D"
		fill-rule="evenodd"
		d="M931.813 939.106C934.853 936.246 939.635 936.391 942.496 939.431L1145.33 1154.99C1148.19 1158.03 1148.05 1162.81 1145.01 1165.67L1122.99 1186.38C1119.95 1189.24 1115.17 1189.1 1112.31 1186.06L909.474 970.504C906.614 967.465 906.759 962.682 909.799 959.822Z"
	/>
	<path
		fill="#FFFFFF"
		fill-rule="evenodd"
		d="M341.12 1739.31C333.625 1731.9 333.557 1719.81 340.969 1712.32L921.422 1125.33C928.834 1117.83 940.919 1117.77 948.414 1125.18L948.414 1125.18C955.91 1132.59 955.978 1144.67 948.566 1152.17L368.112 1739.16C360.7 1746.65 348.616 1746.72 341.12 1739.31Z"
	/>
	<text
		fill="#FF5C4D"
		x="1282.85"
		y="1803"
		font-size="912"
		font-weight="700"
		font-family="'Plus Jakarta Sans', 'Segoe UI', system-ui, sans-serif"
		letter-spacing="-0.01em">ATANA</text>
</svg>
